<?xml version="1.0" encoding="utf-8"?>
<!-- Generator: Adobe Illustrator 26.0.1, SVG Export Plug-In . SVG Version: 6.00 Build 0)  -->
<svg version="1.1" id="Layer_1" xmlns="http://www.w3.org/2000/svg" xmlns:xlink="http://www.w3.org/1999/xlink" x="0px" y="0px"
	 viewBox="0 0 1920 1080" style="enable-background:new 0 0 1920 1080;" xml:space="preserve">
<style type="text/css">
	.st0{fill:url(#SVGID_1_);}
	.st1{fill:url(#SVGID_00000083787546863200105800000013737896232726182847_);}
	.st2{fill-rule:evenodd;clip-rule:evenodd;fill:url(#SVGID_00000140012535802432744470000016903643085582840977_);}
	.st3{fill-rule:evenodd;clip-rule:evenodd;fill:url(#SVGID_00000150068739403598301410000002508372733072714371_);}
	.st4{fill-rule:evenodd;clip-rule:evenodd;fill:none;}
	.st5{fill:url(#SVGID_00000157284375341973469050000004536442862838582676_);}
	.st6{fill:url(#SVGID_00000010994727404079429230000001005498171879431067_);}
	.st7{fill:url(#SVGID_00000026124888479300193940000001661180252484769963_);}
	.st8{fill:url(#SVGID_00000104679675873905318480000003921946424687084437_);}
	.st9{fill:url(#SVGID_00000119103747710953863650000006815812822245046417_);}
	.st10{fill:url(#SVGID_00000021086434916142803940000005517918099476373888_);}
	.st11{fill:url(#SVGID_00000170256029290955146980000014358942196578831800_);}
	.st12{fill:url(#SVGID_00000008118527122368649910000011936977806319501754_);}
	.st13{fill:url(#SVGID_00000145049221004984752240000017815564752006914189_);}
	.st14{fill:url(#SVGID_00000147212224460981305430000003389766671777401529_);}
	.st15{fill:url(#SVGID_00000085952875581883429650000010162393643000392889_);}
</style>
<g>
	<linearGradient id="SVGID_1_" gradientUnits="userSpaceOnUse" x1="1425.4172" y1="58.2757" x2="644.9393" y2="838.7537">
		<stop  offset="0" style="stop-color:#282882"/>
		<stop  offset="0.096" style="stop-color:#2A2C85"/>
		<stop  offset="0.1966" style="stop-color:#2F398D"/>
		<stop  offset="0.2994" style="stop-color:#384E9A"/>
		<stop  offset="0.4029" style="stop-color:#446BAC"/>
		<stop  offset="0.4888" style="stop-color:#5189BF"/>
		<stop  offset="0.6047" style="stop-color:#3B5C99"/>
		<stop  offset="0.7245" style="stop-color:#273478"/>
		<stop  offset="0.8345" style="stop-color:#191860"/>
		<stop  offset="0.9299" style="stop-color:#100651"/>
		<stop  offset="1" style="stop-color:#0D004C"/>
	</linearGradient>
	<polygon class="st0" points="1255.22,648.06 1212,648.06 767.03,205.22 767.03,270 1146.91,648.06 1192.95,693.87 1301.26,693.87 
		1301.26,491.91 1255.22,446.09 	"/>
	
		<linearGradient id="SVGID_00000059309958676839033250000017514655059705687999_" gradientUnits="userSpaceOnUse" x1="1325.0125" y1="-42.1292" x2="544.5344" y2="738.3488">
		<stop  offset="0" style="stop-color:#282882"/>
		<stop  offset="0.096" style="stop-color:#2A2C85"/>
		<stop  offset="0.1966" style="stop-color:#2F398D"/>
		<stop  offset="0.2994" style="stop-color:#384E9A"/>
		<stop  offset="0.4029" style="stop-color:#446BAC"/>
		<stop  offset="0.4888" style="stop-color:#5189BF"/>
		<stop  offset="0.6047" style="stop-color:#3B5C99"/>
		<stop  offset="0.7245" style="stop-color:#273478"/>
		<stop  offset="0.8345" style="stop-color:#191860"/>
		<stop  offset="0.9299" style="stop-color:#100651"/>
		<stop  offset="1" style="stop-color:#0D004C"/>
	</linearGradient>
	<polygon style="fill:url(#SVGID_00000059309958676839033250000017514655059705687999_);" points="740.47,135.77 803.77,135.77 
		1225.72,555.65 1225.72,490.87 868.91,135.77 822.87,89.96 694.44,89.96 694.44,276.79 740.47,322.6 	"/>
	
		<linearGradient id="SVGID_00000121242105133187314760000005823289952548578978_" gradientUnits="userSpaceOnUse" x1="1492.6115" y1="125.47" x2="712.1335" y2="905.9479">
		<stop  offset="0" style="stop-color:#282882"/>
		<stop  offset="0.096" style="stop-color:#2A2C85"/>
		<stop  offset="0.1966" style="stop-color:#2F398D"/>
		<stop  offset="0.2994" style="stop-color:#384E9A"/>
		<stop  offset="0.4029" style="stop-color:#446BAC"/>
		<stop  offset="0.4888" style="stop-color:#5189BF"/>
		<stop  offset="0.6047" style="stop-color:#3B5C99"/>
		<stop  offset="0.7245" style="stop-color:#273478"/>
		<stop  offset="0.8345" style="stop-color:#191860"/>
		<stop  offset="0.9299" style="stop-color:#100651"/>
		<stop  offset="1" style="stop-color:#0D004C"/>
	</linearGradient>
	<path style="fill-rule:evenodd;clip-rule:evenodd;fill:url(#SVGID_00000121242105133187314760000005823289952548578978_);" d="
		M1452.31,522.04L1255.22,325.9l-190.99-190.12h190.99v149.85l46.03,45.77V89.96H953.1l46.03,45.81l256.09,254.9l160.15,159.38
		c-9.78,13.34-15.56,29.78-15.56,47.56c0,44.61,36.34,80.77,81.16,80.77c44.83,0,81.16-36.16,81.16-80.77
		c0-44.61-36.34-80.77-81.16-80.77C1470.88,516.85,1461.22,518.68,1452.31,522.04L1452.31,522.04z M1480.98,639.9
		c-23.47,0-42.49-18.93-42.49-42.28c0-7.11,1.76-13.82,4.88-19.69c7.12-13.43,21.29-22.59,37.6-22.59c1.06,0,2.1,0.04,3.14,0.12
		c22,1.6,39.35,19.87,39.35,42.17C1523.47,620.98,1504.45,639.91,1480.98,639.9L1480.98,639.9z"/>
	
		<linearGradient id="SVGID_00000101086499474040115150000013806895579935207100_" gradientUnits="userSpaceOnUse" x1="1264.2942" y1="-102.8474" x2="483.8162" y2="677.6306">
		<stop  offset="0" style="stop-color:#282882"/>
		<stop  offset="0.096" style="stop-color:#2A2C85"/>
		<stop  offset="0.1966" style="stop-color:#2F398D"/>
		<stop  offset="0.2994" style="stop-color:#384E9A"/>
		<stop  offset="0.4029" style="stop-color:#446BAC"/>
		<stop  offset="0.4888" style="stop-color:#5189BF"/>
		<stop  offset="0.6047" style="stop-color:#3B5C99"/>
		<stop  offset="0.7245" style="stop-color:#273478"/>
		<stop  offset="0.8345" style="stop-color:#191860"/>
		<stop  offset="0.9299" style="stop-color:#100651"/>
		<stop  offset="1" style="stop-color:#0D004C"/>
	</linearGradient>
	<path style="fill-rule:evenodd;clip-rule:evenodd;fill:url(#SVGID_00000101086499474040115150000013806895579935207100_);" d="
		M543.39,261.79l197.08,196.14l190.99,190.12H740.47V498.2l-46.03-45.77v241.44h348.16l-46.03-45.81l-256.09-254.9L580.32,233.77
		c9.78-13.34,15.56-29.78,15.56-47.56c0-44.61-36.34-80.77-81.16-80.77c-44.83,0-81.16,36.16-81.16,80.77
		c0,44.61,36.34,80.77,81.16,80.77C524.81,266.98,534.48,265.15,543.39,261.79L543.39,261.79z M514.71,143.93
		c23.47,0,42.49,18.93,42.49,42.28c0,7.11-1.76,13.82-4.88,19.69c-7.12,13.43-21.29,22.59-37.6,22.59c-1.06,0-2.1-0.04-3.14-0.12
		c-22-1.6-39.35-19.87-39.35-42.17C472.23,162.85,491.25,143.92,514.71,143.93L514.71,143.93z"/>
	<rect x="433.55" y="89.82" class="st4" width="1128.59" height="604.19"/>
	<g>
		<g>
			
				<linearGradient id="SVGID_00000109734662860571237280000004792213826077187459_" gradientUnits="userSpaceOnUse" x1="1579.6089" y1="772.1528" x2="299.3351" y2="927.8303">
				<stop  offset="0" style="stop-color:#282882"/>
				<stop  offset="0.096" style="stop-color:#2A2C85"/>
				<stop  offset="0.1966" style="stop-color:#2F398D"/>
				<stop  offset="0.2994" style="stop-color:#384E9A"/>
				<stop  offset="0.4029" style="stop-color:#446BAC"/>
				<stop  offset="0.4888" style="stop-color:#5189BF"/>
				<stop  offset="0.6047" style="stop-color:#3B5C99"/>
				<stop  offset="0.7245" style="stop-color:#273478"/>
				<stop  offset="0.8345" style="stop-color:#191860"/>
				<stop  offset="0.9299" style="stop-color:#100651"/>
				<stop  offset="1" style="stop-color:#0D004C"/>
			</linearGradient>
			<path style="fill:url(#SVGID_00000109734662860571237280000004792213826077187459_);" d="M411,824.59h31.31l71.66,98.81v-98.81
				h36.65v162.35h-31.31l-71.66-99.5v99.5H411V824.59z"/>
		</g>
		<g>
			
				<linearGradient id="SVGID_00000079467436385874587350000011810244478783719042_" gradientUnits="userSpaceOnUse" x1="1581.9049" y1="791.0349" x2="301.6311" y2="946.7124">
				<stop  offset="0" style="stop-color:#282882"/>
				<stop  offset="0.096" style="stop-color:#2A2C85"/>
				<stop  offset="0.1966" style="stop-color:#2F398D"/>
				<stop  offset="0.2994" style="stop-color:#384E9A"/>
				<stop  offset="0.4029" style="stop-color:#446BAC"/>
				<stop  offset="0.4888" style="stop-color:#5189BF"/>
				<stop  offset="0.6047" style="stop-color:#3B5C99"/>
				<stop  offset="0.7245" style="stop-color:#273478"/>
				<stop  offset="0.8345" style="stop-color:#191860"/>
				<stop  offset="0.9299" style="stop-color:#100651"/>
				<stop  offset="1" style="stop-color:#0D004C"/>
			</linearGradient>
			<path style="fill:url(#SVGID_00000079467436385874587350000011810244478783719042_);" d="M583.78,824.59h106.68v31.08h-70.04
				v33.63h63.78v30.85h-63.78v35.48h72.59v31.31H583.78V824.59z"/>
		</g>
		<g>
			
				<linearGradient id="SVGID_00000149368775160174293740000016944488383321711279_" gradientUnits="userSpaceOnUse" x1="1584.0522" y1="808.6945" x2="303.7785" y2="964.3721">
				<stop  offset="0" style="stop-color:#282882"/>
				<stop  offset="0.096" style="stop-color:#2A2C85"/>
				<stop  offset="0.1966" style="stop-color:#2F398D"/>
				<stop  offset="0.2994" style="stop-color:#384E9A"/>
				<stop  offset="0.4029" style="stop-color:#446BAC"/>
				<stop  offset="0.4888" style="stop-color:#5189BF"/>
				<stop  offset="0.6047" style="stop-color:#3B5C99"/>
				<stop  offset="0.7245" style="stop-color:#273478"/>
				<stop  offset="0.8345" style="stop-color:#191860"/>
				<stop  offset="0.9299" style="stop-color:#100651"/>
				<stop  offset="1" style="stop-color:#0D004C"/>
			</linearGradient>
			<path style="fill:url(#SVGID_00000149368775160174293740000016944488383321711279_);" d="M760.49,903.91l-52.64-79.32h42.21
				l19.48,30.15l14.84,22.5l34.56-52.65h41.98l-52.41,79.09l55.2,83.27h-43.37l-22.27-34.33l-13.46-20.64l-13.68,20.64l-22.27,34.33
				h-43.37L760.49,903.91z"/>
		</g>
		<g>
			
				<linearGradient id="SVGID_00000004547657741391143530000011515915092187923079_" gradientUnits="userSpaceOnUse" x1="1585.7468" y1="822.6302" x2="305.4731" y2="978.3077">
				<stop  offset="0" style="stop-color:#282882"/>
				<stop  offset="0.096" style="stop-color:#2A2C85"/>
				<stop  offset="0.1966" style="stop-color:#2F398D"/>
				<stop  offset="0.2994" style="stop-color:#384E9A"/>
				<stop  offset="0.4029" style="stop-color:#446BAC"/>
				<stop  offset="0.4888" style="stop-color:#5189BF"/>
				<stop  offset="0.6047" style="stop-color:#3B5C99"/>
				<stop  offset="0.7245" style="stop-color:#273478"/>
				<stop  offset="0.8345" style="stop-color:#191860"/>
				<stop  offset="0.9299" style="stop-color:#100651"/>
				<stop  offset="1" style="stop-color:#0D004C"/>
			</linearGradient>
			<path style="fill:url(#SVGID_00000004547657741391143530000011515915092187923079_);" d="M883.63,824.59h63.55
				c9.74,0,18.58,1.4,26.56,4.18c7.96,2.78,14.76,6.72,20.4,11.83c5.65,5.1,9.97,11.24,12.99,18.44c3.02,7.19,4.53,15.27,4.53,24.23
				c0,8.82-1.51,16.82-4.53,24.01c-3.01,7.19-7.34,13.34-12.99,18.44c-5.64,5.11-12.45,9.05-20.4,11.83
				c-7.97,2.78-16.82,4.17-26.56,4.17h-26.67v45.23h-36.88V824.59z M944.16,909.94c9.74,0,17.17-2.28,22.27-6.84
				c5.11-4.56,7.66-11.09,7.66-19.59c0-8.51-2.55-15.07-7.66-19.71c-5.1-4.64-12.52-6.96-22.27-6.96h-23.88v53.11H944.16z"/>
		</g>
		<g>
			
				<linearGradient id="SVGID_00000065780342342674766720000005822201478845576329_" gradientUnits="userSpaceOnUse" x1="1588.4364" y1="844.7498" x2="308.1627" y2="1000.4274">
				<stop  offset="0" style="stop-color:#282882"/>
				<stop  offset="0.096" style="stop-color:#2A2C85"/>
				<stop  offset="0.1966" style="stop-color:#2F398D"/>
				<stop  offset="0.2994" style="stop-color:#384E9A"/>
				<stop  offset="0.4029" style="stop-color:#446BAC"/>
				<stop  offset="0.4888" style="stop-color:#5189BF"/>
				<stop  offset="0.6047" style="stop-color:#3B5C99"/>
				<stop  offset="0.7245" style="stop-color:#273478"/>
				<stop  offset="0.8345" style="stop-color:#191860"/>
				<stop  offset="0.9299" style="stop-color:#100651"/>
				<stop  offset="1" style="stop-color:#0D004C"/>
			</linearGradient>
			<path style="fill:url(#SVGID_00000065780342342674766720000005822201478845576329_);" d="M1032.05,824.59h106.69v31.08h-70.05
				v33.63h63.78v30.85h-63.78v35.48h72.59v31.31h-109.23V824.59z"/>
		</g>
		<g>
			
				<linearGradient id="SVGID_00000108306247028966671460000011672008210329147812_" gradientUnits="userSpaceOnUse" x1="1590.5721" y1="862.3139" x2="310.2985" y2="1017.9915">
				<stop  offset="0" style="stop-color:#282882"/>
				<stop  offset="0.096" style="stop-color:#2A2C85"/>
				<stop  offset="0.1966" style="stop-color:#2F398D"/>
				<stop  offset="0.2994" style="stop-color:#384E9A"/>
				<stop  offset="0.4029" style="stop-color:#446BAC"/>
				<stop  offset="0.4888" style="stop-color:#5189BF"/>
				<stop  offset="0.6047" style="stop-color:#3B5C99"/>
				<stop  offset="0.7245" style="stop-color:#273478"/>
				<stop  offset="0.8345" style="stop-color:#191860"/>
				<stop  offset="0.9299" style="stop-color:#100651"/>
				<stop  offset="1" style="stop-color:#0D004C"/>
			</linearGradient>
			<path style="fill:url(#SVGID_00000108306247028966671460000011672008210329147812_);" d="M1166.8,824.59h69.35
				c9.28,0,17.66,1.28,25.16,3.83c7.5,2.55,13.88,6.26,19.13,11.13s9.31,10.75,12.18,17.63c2.86,6.88,4.29,14.65,4.29,23.3
				c0,12.06-2.71,22.35-8.12,30.85c-5.41,8.51-12.99,14.92-22.73,19.24l33.63,56.36h-42.68l-28.99-50.56h-24.35v50.56h-36.88V824.59
				z M1231.28,905.3c9.12,0,16.12-2.12,20.99-6.38c4.88-4.25,7.31-10.32,7.31-18.21c0-7.89-2.43-13.95-7.31-18.21
				c-4.87-4.25-11.87-6.38-20.99-6.38h-28.06v49.17H1231.28z"/>
		</g>
		<g>
			
				<linearGradient id="SVGID_00000073686484490261373410000014318196754865440908_" gradientUnits="userSpaceOnUse" x1="1592.3596" y1="877.0131" x2="312.0858" y2="1032.6906">
				<stop  offset="0" style="stop-color:#282882"/>
				<stop  offset="0.096" style="stop-color:#2A2C85"/>
				<stop  offset="0.1966" style="stop-color:#2F398D"/>
				<stop  offset="0.2994" style="stop-color:#384E9A"/>
				<stop  offset="0.4029" style="stop-color:#446BAC"/>
				<stop  offset="0.4888" style="stop-color:#5189BF"/>
				<stop  offset="0.6047" style="stop-color:#3B5C99"/>
				<stop  offset="0.7245" style="stop-color:#273478"/>
				<stop  offset="0.8345" style="stop-color:#191860"/>
				<stop  offset="0.9299" style="stop-color:#100651"/>
				<stop  offset="1" style="stop-color:#0D004C"/>
			</linearGradient>
			<path style="fill:url(#SVGID_00000073686484490261373410000014318196754865440908_);" d="M1363.23,859.15h-51.49v-34.56h139.86
				v34.56h-51.49v127.79h-36.88V859.15z"/>
		</g>
		<g>
			
				<linearGradient id="SVGID_00000058546948388062695990000003552008942853255582_" gradientUnits="userSpaceOnUse" x1="1594.8552" y1="897.5371" x2="314.5815" y2="1053.2147">
				<stop  offset="0" style="stop-color:#282882"/>
				<stop  offset="0.096" style="stop-color:#2A2C85"/>
				<stop  offset="0.1966" style="stop-color:#2F398D"/>
				<stop  offset="0.2994" style="stop-color:#384E9A"/>
				<stop  offset="0.4029" style="stop-color:#446BAC"/>
				<stop  offset="0.4888" style="stop-color:#5189BF"/>
				<stop  offset="0.6047" style="stop-color:#3B5C99"/>
				<stop  offset="0.7245" style="stop-color:#273478"/>
				<stop  offset="0.8345" style="stop-color:#191860"/>
				<stop  offset="0.9299" style="stop-color:#100651"/>
				<stop  offset="1" style="stop-color:#0D004C"/>
			</linearGradient>
			<path style="fill:url(#SVGID_00000058546948388062695990000003552008942853255582_);" d="M1528.82,990.18
				c-10.2,0-19.37-1.27-27.48-3.82c-8.12-2.55-15.04-6.22-20.76-11.01c-5.72-4.79-10.09-10.59-13.11-17.4
				c-3.01-6.81-4.52-14.38-4.52-22.73h36.18c0,7.89,2.66,13.96,8,18.21c5.34,4.26,12.48,6.38,21.46,6.38
				c7.73,0,13.83-1.51,18.32-4.53c4.48-3.01,6.73-7.22,6.73-12.64c0-5.71-2.67-10.35-8.01-13.92c-5.33-3.56-13.8-6.57-25.39-9.04
				c-19.18-4.02-33.29-10.09-42.33-18.21c-9.05-8.12-13.57-18.83-13.57-32.12c0-7.42,1.4-14.11,4.18-20.07
				c2.78-5.94,6.8-10.98,12.06-15.07c5.25-4.1,11.63-7.27,19.13-9.51c7.5-2.24,15.89-3.36,25.17-3.36c9.58,0,18.28,1.28,26.09,3.82
				c7.81,2.55,14.46,6.15,19.95,10.79c5.48,4.64,9.7,10.24,12.64,16.81c2.93,6.58,4.4,13.96,4.4,22.15h-35.48
				c0-7.42-2.4-13.18-7.18-17.29c-4.79-4.09-11.44-6.15-19.95-6.15c-7.88,0-14.03,1.51-18.44,4.53c-4.41,3.01-6.61,7.23-6.61,12.64
				c0,4.95,2.47,9.12,7.42,12.52c4.95,3.41,13.6,6.58,25.98,9.51c20.25,4.79,34.87,11.18,43.83,19.14
				c8.97,7.96,13.46,18.44,13.46,31.42c0,15.46-5.53,27.48-16.59,36.06C1563.34,985.89,1548.14,990.18,1528.82,990.18z"/>
		</g>
		<g>
			
				<linearGradient id="SVGID_00000099644220140681233910000009659089617023432124_" gradientUnits="userSpaceOnUse" x1="1571.4592" y1="705.131" x2="291.1855" y2="860.8086">
				<stop  offset="0" style="stop-color:#282882"/>
				<stop  offset="0.096" style="stop-color:#2A2C85"/>
				<stop  offset="0.1966" style="stop-color:#2F398D"/>
				<stop  offset="0.2994" style="stop-color:#384E9A"/>
				<stop  offset="0.4029" style="stop-color:#446BAC"/>
				<stop  offset="0.4888" style="stop-color:#5189BF"/>
				<stop  offset="0.6047" style="stop-color:#3B5C99"/>
				<stop  offset="0.7245" style="stop-color:#273478"/>
				<stop  offset="0.8345" style="stop-color:#191860"/>
				<stop  offset="0.9299" style="stop-color:#100651"/>
				<stop  offset="1" style="stop-color:#0D004C"/>
			</linearGradient>
			<path style="fill:url(#SVGID_00000099644220140681233910000009659089617023432124_);" d="M255.42,850.6h-16.39v-11.01h44.52
				v11.01h-16.39v40.69h-11.74V850.6z"/>
		</g>
		<g>
			
				<linearGradient id="SVGID_00000087400230035474907660000005764876595368057518_" gradientUnits="userSpaceOnUse" x1="1572.3173" y1="712.1873" x2="292.0435" y2="867.8649">
				<stop  offset="0" style="stop-color:#282882"/>
				<stop  offset="0.096" style="stop-color:#2A2C85"/>
				<stop  offset="0.1966" style="stop-color:#2F398D"/>
				<stop  offset="0.2994" style="stop-color:#384E9A"/>
				<stop  offset="0.4029" style="stop-color:#446BAC"/>
				<stop  offset="0.4888" style="stop-color:#5189BF"/>
				<stop  offset="0.6047" style="stop-color:#3B5C99"/>
				<stop  offset="0.7245" style="stop-color:#273478"/>
				<stop  offset="0.8345" style="stop-color:#191860"/>
				<stop  offset="0.9299" style="stop-color:#100651"/>
				<stop  offset="1" style="stop-color:#0D004C"/>
			</linearGradient>
			<path style="fill:url(#SVGID_00000087400230035474907660000005764876595368057518_);" d="M322.1,870.46h-20.23v20.83h-11.74
				v-51.69h11.74v19.87h20.23v-19.87h11.74v51.69H322.1V870.46z"/>
		</g>
		<g>
			
				<linearGradient id="SVGID_00000174602382173127769940000015886544502291533203_" gradientUnits="userSpaceOnUse" x1="1573.0428" y1="718.1547" x2="292.7691" y2="873.8323">
				<stop  offset="0" style="stop-color:#282882"/>
				<stop  offset="0.096" style="stop-color:#2A2C85"/>
				<stop  offset="0.1966" style="stop-color:#2F398D"/>
				<stop  offset="0.2994" style="stop-color:#384E9A"/>
				<stop  offset="0.4029" style="stop-color:#446BAC"/>
				<stop  offset="0.4888" style="stop-color:#5189BF"/>
				<stop  offset="0.6047" style="stop-color:#3B5C99"/>
				<stop  offset="0.7245" style="stop-color:#273478"/>
				<stop  offset="0.8345" style="stop-color:#191860"/>
				<stop  offset="0.9299" style="stop-color:#100651"/>
				<stop  offset="1" style="stop-color:#0D004C"/>
			</linearGradient>
			<path style="fill:url(#SVGID_00000174602382173127769940000015886544502291533203_);" d="M344.39,839.59h33.97v9.89h-22.3v10.71
				h20.31v9.82h-20.31v11.3h23.11v9.97h-34.78V839.59z"/>
		</g>
	</g>
</g>
</svg>
